<svg xmlns="http://www.w3.org/2000/svg" version="1.1" width="128" height="128" viewBox="0 0 32 32" id="icon-pdf">
 <path d="m 21.39979,1.00047 c 0.39719,0.02622 0.7787,0.16496 1.09996,0.39999 l 5.09981,5.09984 c 0.23503,0.32126 0.37376,0.70278 0.39998,1.09997 V 28.9996 c -0.0032,1.1032 -0.89674,1.99671 -1.99992,1.99994 H 6.0003803 c -1.10319,-0.0032 -1.99669,-0.89674 -1.99992,-1.99994 V 3.0004 c 0.00323,-1.10319 0.89674,-1.99671 1.99992,-1.99994 H 21.39979 Z m 0,-0.99997 H 6.0003803 c -0.80003,-0.01468 -1.57162,0.29667 -2.13742,0.86247 -0.5658,0.5658 -0.87714,1.3374 -0.86247,2.13743 v 25.9992 c -0.01468,0.80003 0.29667,1.57163 0.86247,2.13743 0.5658,0.56581 1.33739,0.87715 2.13742,0.86247 H 25.99962 c 0.80003,0.01468 1.57162,-0.29667 2.13742,-0.86247 0.5658,-0.5658 0.87714,-1.3374 0.86247,-2.13743 V 7.60026 C 28.98072,6.93751 28.73343,6.30163 28.29954,5.80032 L 23.19973,0.70047 C 22.68905,0.28235 22.05877,0.03724 21.39979,5e-4 Z" fill="var(--iconRed, #d7373f)" id="path2" style="fill:#c83737" />
 <path d="m 10.915903,16.892875 c -0.280695,0.416445 -0.582525,0.818265 -0.90429,1.203885 -0.1458753,0.17271 -0.2885853,0.330705 -0.4265103,0.47292 -0.34629,0.45267 -0.842565,0.7671 -1.399755,0.886875 -0.11781,0.0052 -0.23298,-0.03602 -0.320655,-0.114885 -0.03417,-0.03101 -0.06492,-0.0656 -0.091695,-0.103185 -0.047985,-0.06687 -0.07626,-0.14586 -0.0816,-0.227985 -0.00242,-0.04285 6e-4,-0.08584 0.009,-0.12795 0.00913,-0.04734 0.02265,-0.09372 0.04041,-0.138555 0.105615,-0.23415 0.25758,-0.44445 0.44673,-0.61824 0.05532,-0.05481 0.11481,-0.11046 0.1785,-0.166965 0.91602,-0.734565 1.9316103,-1.33545 3.0164103,-1.784715 -0.15585,0.2517 -0.311355,0.491295 -0.466545,0.7188 z m 10.50825,-3.16971 c 0.447615,-0.0075 0.894945,0.02703 1.33611,0.103185 0.31818,0.0279 0.597045,0.22404 0.73089,0.514035 0.01725,0.05549 0.0268,0.11307 0.02841,0.17115 0.0024,0.06767 -0.0032,0.135375 -0.0168,0.201705 -0.06947,0.35811 -0.43977,0.589815 -0.94635,0.589815 -0.06688,-0.0047 -0.13347,-0.013 -0.199485,-0.02477 -0.07656,-0.0045 -0.15273,-0.01416 -0.227985,-0.02892 -0.99357,-0.251985 -1.91919,-0.720435 -2.710605,-1.371855 0.208485,-0.03164 0.40857,-0.0569 0.59928,-0.07742 0.46716,-0.05046 0.93666,-0.07614 1.406535,-0.07692 z m -4.03698,-0.42549 c -0.53664,0.11265 -1.090695,0.243315 -1.65324,0.39177 -0.40377,0.10692 -0.8136,0.223875 -1.22331,0.348645 0.217605,-0.445485 0.41766,-0.886875 0.591945,-1.30656 0.229605,-0.55458 0.445485,-1.109085 0.64347,-1.651545 0.1743,0.2733 0.35451,0.538785 0.538275,0.79416 0.182265,0.25227 0.36813,0.49539 0.55761,0.72936 0.18921,0.23385 0.381435,0.45714 0.54525,0.694155 z M 14.613388,3.7255752 c 0.130365,-0.190035 0.27459,-0.271905 0.431805,-0.279615 0.10476,-0.00252 0.207135,0.031545 0.289485,0.09636 0.221235,0.26469 0.324795,0.608235 0.286695,0.95109 -0.004,0.34464 -0.03436,0.688485 -0.09069,1.02852 -0.09703,0.60264 -0.22698,1.199505 -0.38925,1.78794 -0.0437,0.16272 -0.09033,0.328095 -0.139935,0.496095 -0.180675,-0.47346 -0.32676,-0.9594 -0.437115,-1.45401 -0.08754,-0.38994 -0.14283,-0.78642 -0.16533,-1.185435 -0.01779,-0.29601 -0.0048,-0.593055 0.0389,-0.886365 0.02505,-0.193815 0.08445,-0.381615 0.175425,-0.55458 z m 10.6167,10.9180498 c -0.01392,-0.138915 -0.04597,-0.2754 -0.09537,-0.405975 -0.06402,-0.17457 -0.1611,-0.335145 -0.28593,-0.472935 -0.158415,-0.166995 -0.34221,-0.307935 -0.54459,-0.4176 -0.881805,-0.408825 -1.850655,-0.59439 -2.821125,-0.54036 -0.40326,0 -0.833565,0.0195 -1.2876,0.05898 -0.453915,0.039 -0.930645,0.09781 -1.43019,0.176445 -0.575535,-0.56124 -1.09974,-1.172805 -1.566345,-1.82742 -0.354015,-0.489345 -0.68115,-0.997575 -0.97995,-1.522455 0.14487,-0.455055 0.27162,-0.8883 0.38028,-1.2997348 0.06366,-0.242235 0.12,-0.47451 0.171645,-0.701475 0.07263,-0.321795 0.13317,-0.627795 0.181635,-0.91797 0.03321,-0.20064 0.06176,-0.394935 0.08272,-0.57984 0.03516,-0.296085 0.05343,-0.59394 0.05469,-0.89211 0.07536,-0.926235 -0.28317,-1.83504 -0.970605,-2.46036 -0.09776,-0.071415 -0.203205,-0.131655 -0.314355,-0.17961 -0.235245,-0.09678 -0.487635,-0.14496 -0.74199,-0.141795 -0.2517,0.00355 -0.497955,0.07389 -0.71346,0.20394 -0.221775,0.12954 -0.406875,0.3135 -0.53778,0.534495 -0.25887,0.51402 -0.378705,1.08684 -0.347565,1.661535 0.0048,0.272715 0.02535,0.54492 0.06163,0.81525 0.153855,1.093215 0.464235,2.158605 0.9216,3.1633948 -0.08906,0.263325 -0.179595,0.524985 -0.272805,0.787275 -0.186915,0.52401 -0.38496,1.04961 -0.60147,1.59465 -0.10836,0.272295 -0.22113,0.54927 -0.339735,0.833685 -0.404745,0.974085 -0.862725,1.925205 -1.371855,2.84904 -1.72611,0.606405 -3.3020703,1.576005 -4.6215453,2.843355 -0.22221,0.260055 -0.37752,0.570465 -0.452415,0.90423 -0.022275,0.11976 -0.029865,0.24177 -0.022605,0.36336 0.01581,0.236745 0.093135,0.46527 0.224295,0.662985 0.068835,0.104025 0.150015,0.199335 0.24174,0.283875 0.110385,0.09999 0.23412,0.18417 0.36765,0.250125 0.03309,0.01686 0.06732,0.03264 0.1047,0.04901 0.108975,0.04842 0.222195,0.08667 0.33822,0.11424 0.16704,0.03941 0.33813,0.05904 0.509745,0.05851 0.3795,-0.0065 0.752835,-0.097 1.09323,-0.264915 0.252315,-0.120765 0.4921953,-0.26592 0.7162353,-0.433395 0.504975,-0.385635 0.963735,-0.8283 1.367175,-1.319175 0.445605,-0.534855 0.857175,-1.097175 1.23228,-1.68363 0.285945,-0.442485 0.55458,-0.8916 0.799845,-1.32765 0.37233,-0.12693 0.747675,-0.247515 1.126065,-0.36177 0.377505,-0.114315 0.75678,-0.221715 1.134915,-0.32124 0.08146,-0.0216 0.159525,-0.03795 0.240465,-0.05898 0.74262,-0.19122 1.46505,-0.35445 2.14719,-0.475575 0.129,0.112725 0.25731,0.21945 0.38496,0.32016 0.25422,0.202275 0.50382,0.38256 0.748815,0.54087 0.12225,0.07952 0.243195,0.154305 0.36285,0.22437 1.001655,0.62016 2.150445,0.96225 3.328185,0.991065 0.477615,0.02505 0.95211,-0.09027 1.364955,-0.331725 0.07051,-0.0462 0.136935,-0.09837 0.19854,-0.155925 0.15486,-0.14439 0.273615,-0.323145 0.346695,-0.521865 0.05465,-0.144195 0.08589,-0.296205 0.09258,-0.450255 0.003,-0.07309 9.15e-4,-0.146295 -0.0062,-0.21909 z" fill="var(--iconRed, #d7373f)" id="path4" style="stroke-width:1.5;fill:#c83737" />
 <path style="line-height:1.25;fill:#241c1c;stroke-width:0.25" d="m 9.0149964,29.156796 v -2.66 h 1.3399996 c 1.35,0 2.1,-0.84 2.1,-2.16 0,-1.33 -0.75,-2.16 -2.1,-2.16 H 7.7049964 v 6.98 z m 0,-5.91 h 1.0699996 c 0.7,0 0.99,0.28 0.99,0.9 v 0.38 c 0,0.62 -0.29,0.9 -0.99,0.9 H 9.0149964 Z m 4.6200036,5.91 h 2.17 c 1.81,0 2.69,-1.23 2.69,-3.49 0,-2.26 -0.88,-3.49 -2.69,-3.49 h -2.17 z m 1.29,-1.05 v -4.88 h 0.79 c 0.96,0 1.41,0.65 1.41,1.83 v 1.21 c 0,1.19 -0.45,1.84 -1.41,1.84 z m 6.120004,1.05 v -3 h 2.93 v -1.08 h -2.93 v -1.82 h 3.25 v -1.08 h -4.56 v 6.98 z" id="text4" aria-label="PDF" />
</svg>
